<?xml version="1.0" encoding="UTF-8" standalone="no"?>
<svg
   xmlns:dc="http://purl.org/dc/elements/1.1/"
   xmlns:cc="http://creativecommons.org/ns#"
   xmlns:rdf="http://www.w3.org/1999/02/22-rdf-syntax-ns#"
   xmlns:svg="http://www.w3.org/2000/svg"
   xmlns="http://www.w3.org/2000/svg"
   xmlns:sodipodi="http://sodipodi.sourceforge.net/DTD/sodipodi-0.dtd"
   xmlns:inkscape="http://www.inkscape.org/namespaces/inkscape"
   inkscape:version="1.0 (4035a4fb49, 2020-05-01)"
   sodipodi:docname="location.svg"
   xml:space="preserve"
   style="enable-background:new 0 0 512 512;"
   viewBox="0 0 512 512"
   y="0px"
   x="0px"
   id="Capa_1"
   version="1.1"><metadata
   id="metadata43"><rdf:RDF><cc:Work
       rdf:about=""><dc:format>image/svg+xml</dc:format><dc:type
         rdf:resource="http://purl.org/dc/dcmitype/StillImage" /></cc:Work></rdf:RDF></metadata><defs
   id="defs41" /><sodipodi:namedview
   inkscape:current-layer="Capa_1"
   inkscape:window-maximized="1"
   inkscape:window-y="0"
   inkscape:window-x="0"
   inkscape:cy="254.89177"
   inkscape:cx="31.584416"
   inkscape:zoom="0.90234375"
   showgrid="false"
   id="namedview39"
   inkscape:window-height="708"
   inkscape:window-width="1366"
   inkscape:pageshadow="2"
   inkscape:pageopacity="0"
   guidetolerance="10"
   gridtolerance="10"
   objecttolerance="10"
   borderopacity="1"
   bordercolor="#666666"
   pagecolor="#ffffff" />
<g
   style="fill:#707070;fill-opacity:1"
   id="g6">
	<g
   style="fill:#707070;fill-opacity:1"
   id="g4">
		<path
   style="fill:#707070;fill-opacity:1"
   id="path2"
   d="M256,0C148.48,0,61,87.48,61,195c0,42.55,13.44,82.98,38.9,116.9l144.08,194.051c0.36,0.47,0.91,0.65,1.31,1.07    c7.2,7.71,17.59,5.77,22.72-1.07C309.5,450.591,385.55,347.2,414.79,308.2c0,0,0.01-0.03,0.02-0.05l0.18-0.24    C438.55,274.81,451,235.77,451,195C451,87.48,363.52,0,256,0z M256,300.2c-57.89,0-105.2-47.31-105.2-105.2S198.11,89.8,256,89.8    S361.2,137.11,361.2,195S313.89,300.2,256,300.2z" />
	</g>
</g>
<g
   id="g8">
</g>
<g
   id="g10">
</g>
<g
   id="g12">
</g>
<g
   id="g14">
</g>
<g
   id="g16">
</g>
<g
   id="g18">
</g>
<g
   id="g20">
</g>
<g
   id="g22">
</g>
<g
   id="g24">
</g>
<g
   id="g26">
</g>
<g
   id="g28">
</g>
<g
   id="g30">
</g>
<g
   id="g32">
</g>
<g
   id="g34">
</g>
<g
   id="g36">
</g>
</svg>
